<svg width="60" height="60" viewBox="0 0 60 60" fill="none" xmlns="http://www.w3.org/2000/svg">
<path d="M30 27.5C33.3152 27.5 36.4946 28.817 38.8388 31.1612C41.183 33.5054 42.5 36.6848 42.5 40V55H17.5V40C17.5 36.6848 18.817 33.5054 21.1612 31.1612C23.5054 28.817 26.6848 27.5 30 27.5ZM13.22 35.015C12.8221 36.357 12.5871 37.7419 12.52 39.14L12.5 40V55H5V43.75C4.99951 41.5939 5.79507 39.5136 7.23409 37.908C8.6731 36.3025 10.6542 35.2847 12.7975 35.05L13.2225 35.015H13.22ZM46.78 35.015C49.0048 35.1506 51.094 36.1299 52.6215 37.7531C54.149 39.3763 54.9997 41.5211 55 43.75V55H47.5V40C47.5 38.2675 47.25 36.595 46.78 35.015ZM13.75 20C15.4076 20 16.9973 20.6585 18.1694 21.8306C19.3415 23.0027 20 24.5924 20 26.25C20 27.9076 19.3415 29.4973 18.1694 30.6694C16.9973 31.8415 15.4076 32.5 13.75 32.5C12.0924 32.5 10.5027 31.8415 9.33058 30.6694C8.15848 29.4973 7.5 27.9076 7.5 26.25C7.5 24.5924 8.15848 23.0027 9.33058 21.8306C10.5027 20.6585 12.0924 20 13.75 20ZM46.25 20C47.9076 20 49.4973 20.6585 50.6694 21.8306C51.8415 23.0027 52.5 24.5924 52.5 26.25C52.5 27.9076 51.8415 29.4973 50.6694 30.6694C49.4973 31.8415 47.9076 32.5 46.25 32.5C44.5924 32.5 43.0027 31.8415 41.8306 30.6694C40.6585 29.4973 40 27.9076 40 26.25C40 24.5924 40.6585 23.0027 41.8306 21.8306C43.0027 20.6585 44.5924 20 46.25 20ZM30 5C32.6522 5 35.1957 6.05357 37.0711 7.92893C38.9464 9.8043 40 12.3478 40 15C40 17.6522 38.9464 20.1957 37.0711 22.0711C35.1957 23.9464 32.6522 25 30 25C27.3478 25 24.8043 23.9464 22.9289 22.0711C21.0536 20.1957 20 17.6522 20 15C20 12.3478 21.0536 9.8043 22.9289 7.92893C24.8043 6.05357 27.3478 5 30 5Z" fill="#2D9CDB"/>
</svg>
