<svg width="60" height="60" viewBox="0 0 60 60" fill="none" xmlns="http://www.w3.org/2000/svg">
<path d="M44.6025 39.1475L45.0425 39.59L45.4875 39.1475C46.0098 38.6252 46.6299 38.2108 47.3124 37.9281C47.9949 37.6455 48.7263 37.5 49.465 37.5C50.2037 37.5 50.9351 37.6455 51.6176 37.9281C52.3001 38.2108 52.9202 38.6252 53.4425 39.1475C53.9648 39.6698 54.3792 40.2899 54.6619 40.9724C54.9445 41.6549 55.09 42.3863 55.09 43.125C55.09 43.8637 54.9445 44.5951 54.6619 45.2776C54.3792 45.9601 53.9648 46.5802 53.4425 47.1025L45.0425 55.5L36.6475 47.1025C35.5926 46.0476 35 44.6169 35 43.125C35 41.6331 35.5926 40.2024 36.6475 39.1475C37.7024 38.0926 39.1331 37.5 40.625 37.5C42.1169 37.5 43.5476 38.0926 44.6025 39.1475ZM30 35V55H10C10.0001 49.8039 12.0223 44.8119 15.6387 41.0807C19.255 37.3496 24.1815 35.1724 29.375 35.01L30 35ZM30 2.5C38.2875 2.5 45 9.2125 45 17.5C45 25.7875 38.2875 32.5 30 32.5C21.7125 32.5 15 25.7875 15 17.5C15 9.2125 21.7125 2.5 30 2.5Z" fill="#F2994A"/>
</svg>
