<svg width="60" height="60" viewBox="0 0 60 60" fill="none" xmlns="http://www.w3.org/2000/svg">
<path d="M32.5 52.5V58.75L25 53.75L17.5 58.75V52.5H16.25C13.9294 52.5 11.7038 51.5781 10.0628 49.9372C8.42187 48.2962 7.5 46.0706 7.5 43.75V12.5C7.5 10.5109 8.29018 8.60322 9.6967 7.1967C11.1032 5.79018 13.0109 5 15 5H50C50.663 5 51.2989 5.26339 51.7678 5.73223C52.2366 6.20107 52.5 6.83696 52.5 7.5V50C52.5 50.663 52.2366 51.2989 51.7678 51.7678C51.2989 52.2366 50.663 52.5 50 52.5H32.5ZM17.5 47.5V42.5H32.5V47.5H47.5V40H16.25C15.2554 40 14.3016 40.3951 13.5983 41.0984C12.8951 41.8016 12.5 42.7554 12.5 43.75C12.5 44.7446 12.8951 45.6984 13.5983 46.4016C14.3016 47.1049 15.2554 47.5 16.25 47.5H17.5ZM17.5 12.5V17.5H22.5V12.5H17.5ZM17.5 20V25H22.5V20H17.5ZM17.5 27.5V32.5H22.5V27.5H17.5Z" fill="#219653"/>
</svg>
