<svg width="60" height="60" viewBox="0 0 60 60" fill="none" xmlns="http://www.w3.org/2000/svg">
<path d="M7.5 7.5H52.5C53.163 7.5 53.7989 7.76339 54.2678 8.23223C54.7366 8.70107 55 9.33696 55 10V50C55 50.663 54.7366 51.2989 54.2678 51.7678C53.7989 52.2366 53.163 52.5 52.5 52.5H7.5C6.83696 52.5 6.20107 52.2366 5.73223 51.7678C5.26339 51.2989 5 50.663 5 50V10C5 9.33696 5.26339 8.70107 5.73223 8.23223C6.20107 7.76339 6.83696 7.5 7.5 7.5ZM41.16 38.84L50 30L41.16 21.16L37.625 24.7L42.93 30L37.625 35.3025L41.16 38.84ZM17.07 30L22.375 24.6975L18.84 21.16L10 30L18.84 38.84L22.375 35.3L17.07 30ZM28.11 42.5L37.21 17.5H31.89L22.79 42.5H28.11Z" fill="#828282"/>
</svg>
